<svg width="355" height="355" fill="none" xmlns="http://www.w3.org/2000/svg"><path fill-rule="evenodd" clip-rule="evenodd" d="M177.5 355c98.031 0 177.5-79.469 177.5-177.5C355 79.47 275.531 0 177.5 0 79.47 0 0 79.47 0 177.5 0 275.531 79.47 355 177.5 355z" fill="url(#paint0_linear)"/><path fill-rule="evenodd" clip-rule="evenodd" d="M61.5 123c33.966 0 61.5-27.534 61.5-61.5C123 27.535 95.466 0 61.5 0 27.535 0 0 27.535 0 61.5 0 95.466 27.535 123 61.5 123z" fill="url(#paint1_linear)"/><defs><linearGradient id="paint0_linear" x1="200.172" y1="438.922" x2="440.821" y2="190.657" gradientUnits="userSpaceOnUse"><stop stop-color="#CD10FF"/><stop offset="1" stop-color="#9F06FF"/></linearGradient><linearGradient id="paint1_linear" x1="63.658" y1="149.499" x2="126.315" y2="62.342" gradientUnits="userSpaceOnUse"><stop stop-color="#FFD7A9"/><stop offset="1" stop-color="#FFAE70"/></linearGradient></defs></svg>